<svg width="51" height="50" viewBox="0 0 51 50" fill="none" xmlns="http://www.w3.org/2000/svg">
<path d="M43.0961 42.1948L43.5201 34.1792L46.6626 35.0706C46.5199 35.7532 46.3436 36.4328 46.1236 37.0913C45.8133 37.9803 45.4243 38.839 44.9616 39.6571C44.4478 40.5793 43.821 41.432 43.0961 42.1948ZM34.6049 46.422L33.641 42.3916L42.0886 43.1384C41.1012 43.9728 39.9959 44.6523 38.8094 45.1541C37.6136 45.6661 36.2643 46.0706 34.6049 46.422ZM26.4218 47.4007L33.1011 42.5502L34.0541 46.5394C32.7702 46.7874 31.4238 46.9911 29.9427 47.1548C28.7747 47.2913 27.5958 47.3646 26.4218 47.4007ZM17.9158 42.5522L24.591 47.4007C23.4145 47.3688 22.2399 47.2867 21.0701 47.1548C19.6935 47.0052 18.3232 46.7999 16.9628 46.5394L17.9158 42.5522ZM17.3739 42.3916L16.4129 46.422C14.7525 46.0706 13.4032 45.6671 12.2055 45.1531C11.0233 44.6526 9.92196 43.9751 8.93818 43.1434L17.3739 42.3916ZM7.49871 34.1782L7.92273 42.1938C7.19652 41.4309 6.56901 40.5775 6.05528 39.6541C5.59444 38.8379 5.20653 37.9815 4.89618 37.0953C4.67664 36.4284 4.49602 35.749 4.35526 35.0605L7.49871 34.1782ZM7.92273 8.81121L7.49871 16.8208L4.34932 15.9274C4.63662 14.5411 5.09629 13.2 5.72835 11.9442C6.31269 10.802 7.05125 9.74685 7.92273 8.81121ZM16.4109 4.57703L17.3739 8.60844L8.93818 7.85556C9.92251 7.02336 11.0245 6.34558 12.2074 5.84487C13.3992 5.33392 14.7476 4.93138 16.4109 4.57703ZM24.5891 3.6013L17.9158 8.44883L16.9647 4.4656C18.325 4.20393 19.6953 3.99864 21.0721 3.85025C22.2406 3.7183 23.4139 3.63525 24.5891 3.6013ZM33.1011 8.45083L26.4258 3.6023C27.6016 3.63653 28.7756 3.71958 29.9447 3.85125C31.4199 4.01187 32.7583 4.21263 34.0531 4.46359L33.1011 8.45184V8.45083ZM33.641 8.60844L34.6049 4.57703C36.2673 4.92837 37.6166 5.33292 38.8124 5.84588C40.0012 6.34579 41.0929 7.02539 42.0826 7.85556L33.641 8.60844ZM43.5201 16.8198L43.0961 8.80519C43.8193 9.57011 44.4494 10.4174 44.9626 11.3439C45.4242 12.16 45.8145 13.0223 46.1217 13.9047C46.3446 14.5672 46.5219 15.2518 46.6655 15.9374L43.5201 16.8198ZM43.6727 33.6341L47.4274 26.6343C47.3977 29.2162 47.2629 31.9095 46.7735 34.5145L43.6727 33.6341ZM7.34615 33.6441L4.23836 34.5155C3.74995 31.9035 3.61621 29.2132 3.58649 26.6353L7.34615 33.6441ZM7.34119 17.3649L3.58649 24.3637C3.61621 21.7878 3.74995 19.0975 4.23836 16.4845L7.34119 17.3649ZM43.6667 17.3559L46.7745 16.4825C47.2629 19.0875 47.3967 21.7828 47.4284 24.3647L43.6667 17.3559ZM35.6273 35.6458L42.9574 34.1601L42.5096 42.6134L33.6479 41.8254L35.6273 35.6458ZM8.06241 34.1621L15.3895 35.6578L17.364 41.8244L8.50921 42.6134L8.06241 34.1621ZM15.3856 15.3552L8.06241 16.8379L8.50822 8.38558L17.365 9.1746L15.3856 15.3552ZM42.9574 16.8389L35.6224 15.3412L33.6479 9.1756L42.5096 8.38759L42.9574 16.8389ZM39.485 25.501L43.2685 17.8056L47.3967 25.5L43.2685 33.1944L39.485 25.501ZM25.5064 39.1331L32.7028 42.1406L25.5054 47.3676L18.2932 42.1276L25.5074 39.1341L25.5064 39.1331ZM11.5249 25.502L7.74539 33.1954L3.61819 25.501L7.74539 17.8066L11.5249 25.502ZM25.5084 11.8639L18.3131 8.85739L25.5084 3.63242L32.7206 8.87245L25.5094 11.8649L25.5084 11.8639ZM26.2802 38.843L34.9685 35.8576L33.1001 41.6939L26.2802 38.843ZM24.7426 38.8601L17.9138 41.6959L16.0464 35.8586L24.7426 38.8601ZM24.7337 12.155L16.0454 15.1414L17.9138 9.3041L24.7337 12.155ZM26.2732 12.1359L33.0991 9.30309L34.9685 15.1384L26.2732 12.1359ZM39.2047 26.2047L42.8425 33.606L35.8482 35.0284L39.2047 26.2047ZM15.1617 35.0334L8.1704 33.607L11.8052 26.2037L15.1617 35.0334ZM11.8032 24.7933L8.16743 17.387L15.1617 15.9696L11.8032 24.7933ZM35.8522 15.9646L42.8425 17.392L39.2047 24.7923L35.8522 15.9646ZM35.1785 35.2041L25.5074 38.5258L15.8215 35.183L12.1381 25.499L15.8284 15.7989L25.5094 12.4712L35.1924 15.814L38.8708 25.499L35.1785 35.2041ZM48 25.497C47.9901 22.4805 47.895 19.2632 47.2887 16.1593L47.2956 16.1432L47.2679 16.0489C47.1138 15.2599 46.9089 14.4809 46.6546 13.719C46.3333 12.8001 45.9315 11.9121 45.4539 11.0658C44.8106 9.90623 43.9961 8.85309 43.0386 7.94289V7.93285L42.9693 7.86961C41.8138 6.794 40.4809 5.93233 39.0313 5.32388C37.7494 4.77579 36.3198 4.34916 34.5494 3.98276L34.5475 3.98075L34.4613 3.96268L34.4523 3.96067H34.4494C32.9789 3.66974 31.4963 3.44533 30.0061 3.2881C28.5135 3.113 27.0129 3.01683 25.5104 3H25.5074H25.5005C24.0006 3.01707 22.4888 3.11343 21.0087 3.2881C19.5382 3.44523 18.0752 3.66762 16.6239 3.95465L16.62 3.95365L16.5536 3.96168L16.5407 3.96669C14.7337 4.33711 13.2853 4.76776 11.9865 5.32388C10.5599 5.92618 9.26214 6.76439 8.12285 7.81039H8.1169L8.06439 7.86058L8.05647 7.8666C8.05465 7.86846 8.05266 7.87014 8.05053 7.87162L8.04854 7.87363C8.04854 7.87363 8.04854 7.87564 8.04656 7.87664C6.97761 8.86843 6.00376 10.1835 5.22806 11.6852C4.53158 13.0696 4.03067 14.5463 3.74004 16.072L3.73905 16.077C3.11987 19.2049 3.02378 22.4283 3.01585 25.4488L3 25.4859L3.01486 25.5281C3.02378 28.5316 3.11888 31.7358 3.72518 34.8487L3.72023 34.8608L3.74401 34.9471C3.74599 34.9521 3.75193 34.9551 3.75391 34.9602C3.90747 35.7462 4.11254 36.5261 4.36418 37.279C4.6812 38.1895 5.08738 39.0829 5.56489 39.9342C6.22309 41.1212 7.06005 42.1968 8.04557 43.1224H8.04755L8.05152 43.1274C9.20528 44.203 10.5365 45.066 11.9845 45.6751C13.2516 46.2172 14.6713 46.6428 16.4694 47.0142L16.4753 47.0213L16.5427 47.0353C16.5467 47.0353 16.5486 47.0393 16.5526 47.0393L16.5863 47.0433C18.0494 47.3327 19.5243 47.5574 21.0067 47.7169C22.4646 47.886 23.9301 47.9792 25.3975 47.996L25.3994 47.998H25.4331L25.4361 48H25.5094C27.0119 47.9855 28.5125 47.891 30.0052 47.7169C31.4944 47.558 32.9759 47.3323 34.4454 47.0403C34.4484 47.0403 34.4504 47.0373 34.4543 47.0363C36.2792 46.6629 37.7335 46.2302 39.0293 45.6761C40.4504 45.078 41.7594 44.2365 42.8989 43.1886H42.9029L42.9307 43.1615L42.9723 43.1274C42.9762 43.1234 42.9772 43.1183 42.9812 43.1143C43.963 42.191 44.7969 41.1185 45.4529 39.9352C45.932 39.0869 46.3345 38.1966 46.6556 37.275C46.9132 36.5071 47.1193 35.7191 47.2709 34.9321C47.2709 34.9321 47.2738 34.93 47.2738 34.928C47.895 31.8011 47.9901 28.5497 48 25.5V25.497Z" fill="#327969" stroke="#327969" stroke-width="0.5"/>
</svg>
