<svg width="51" height="50" viewBox="0 0 51 50" fill="none" xmlns="http://www.w3.org/2000/svg">
<path d="M25.4755 48C25.5246 48 25.5246 48 25.5246 48C27.7365 48 29.8009 47.1956 31.7177 45.788H31.7669L31.8161 45.7376C33.5856 44.3803 35.1584 42.5202 36.4363 40.258C36.4855 40.2076 36.4855 40.1574 36.5347 40.1071C37.6159 38.1967 38.4515 35.9847 39.0905 33.5716C39.7787 30.9574 40.1227 28.0416 40.1227 25.0754C40.1227 22.059 39.7296 19.1935 39.0905 16.5792C38.5007 14.1662 37.6159 11.9541 36.5347 10.0437C36.5347 9.99344 36.4855 9.94317 36.4363 9.8929C35.1584 7.63061 33.5856 5.72021 31.8161 4.41311L31.7669 4.36284H31.7177C29.8009 2.80437 27.7365 2 25.5246 2C25.5246 2 25.5246 2 25.4755 2C25.4755 2 25.4755 2 25.4264 2C23.2145 2 21.101 2.80437 19.2332 4.21202H19.1841L19.1349 4.26229C17.3655 5.61967 15.7926 7.47979 14.5147 9.74208C14.4655 9.79235 14.4655 9.84262 14.4164 9.8929C13.3842 11.8033 12.4994 13.965 11.9096 16.3279C11.9096 16.3781 11.8605 16.4284 11.8605 16.4787C11.2707 19.0929 10.8774 22.0088 10.8774 25.0252C10.8774 28.0416 11.2707 30.9071 11.9096 33.5716C11.9096 33.6219 11.9096 33.6721 11.9588 33.7224C12.5486 36.0853 13.4333 38.247 14.4655 40.1574C14.4655 40.2076 14.5147 40.258 14.5638 40.3082C15.8418 42.5705 17.4146 44.4809 19.1841 45.788L19.2332 45.8382H19.2824C21.1502 47.1956 23.2636 48 25.4755 48ZM20.118 45.2349L22.2806 41.7158L24.7382 46.9443C23.0671 46.8437 21.5434 46.2404 20.118 45.2349ZM12.9418 33.7224L15.252 32.4153L14.613 38.2973C13.9248 36.8897 13.3842 35.3815 12.9418 33.7224ZM14.613 11.7027L15.252 17.5847L12.9418 16.2776C13.3842 14.6185 13.9248 13.1104 14.613 11.7027ZM24.6891 3.00546L22.2315 8.23388L20.0688 4.71475C21.5434 3.75956 23.0671 3.15628 24.6891 3.00546ZM30.833 4.76502L28.6704 8.28416L26.262 3.00546C27.8839 3.15628 29.4076 3.75956 30.833 4.76502ZM38.0092 16.2776L35.7482 17.5847L36.3872 11.7027C37.0261 13.1104 37.5668 14.6185 38.0092 16.2776ZM36.338 38.2973L35.6991 32.4153L38.0092 33.7224C37.5668 35.3815 37.0261 36.8897 36.338 38.2973ZM26.262 46.9945L28.7195 41.7662L30.8822 45.2853C29.4076 46.2404 27.8839 46.8437 26.262 46.9945ZM17.5129 26.8349L19.3315 33.4208L16.3333 31.3596L17.5129 26.8349ZM16.3333 18.6907L19.3315 16.6295L17.5129 23.2153L16.3333 18.6907ZM33.4381 23.2153L31.6195 16.5792L34.6177 18.6907L33.4381 23.2153ZM34.6177 31.3093L31.6195 33.3705L33.4381 26.7847L34.6177 31.3093ZM20.5603 34.2754L18.0044 25.0252L20.5603 15.7748L25.4755 11.6525L30.3907 15.7748L32.9465 25.0252L30.3907 34.2754L25.4755 38.3979L20.5603 34.2754ZM26.3602 38.9508L29.8009 36.0853L28.3755 40.0568L26.3602 38.9508ZM33.9296 25.0252L35.355 19.5956L39.0414 25.0252L35.355 30.4546L33.9296 25.0252ZM26.3602 11.0492L28.3755 9.94317L29.8009 13.9148L26.3602 11.0492ZM28.0314 9.03825L25.4755 10.3956L22.9687 9.03825L25.5246 3.60874L28.0314 9.03825ZM24.6399 11.0492L21.1993 13.9148L22.6247 9.94317L24.6399 11.0492ZM17.0214 25.0252L15.596 30.4044L11.9096 25.0252L15.596 19.5956L17.0214 25.0252ZM24.6399 38.9508L22.6247 40.0568L21.1993 36.0853L24.6399 38.9508ZM22.9687 40.9618L25.5246 39.6044L28.0806 40.9618L25.5246 46.3912L22.9687 40.9618ZM31.1771 34.8787L34.7652 32.3651L35.5024 39.4536L29.3093 40.1071L31.1771 34.8787ZM35.8465 31.3596L39.0905 26.5836C38.9922 28.7454 38.6973 30.8065 38.255 32.717L35.8465 31.3596ZM35.8465 18.6404L38.255 17.283C38.6973 19.1935 38.9922 21.2546 39.0905 23.4164L35.8465 18.6404ZM34.7652 17.6349L31.1771 15.1213L29.3093 9.84263L35.5516 10.5464L34.7652 17.6349ZM19.7739 15.1213L16.1858 17.6349L15.4485 10.5464L21.6417 9.8929L19.7739 15.1213ZM15.1045 18.6404L11.8605 23.4164C11.9588 21.2546 12.2537 19.1935 12.6961 17.283L15.1045 18.6404ZM15.1045 31.3596L12.6961 32.717C12.2537 30.8065 11.9588 28.6951 11.8605 26.5836L15.1045 31.3596ZM16.1858 32.4153L19.7739 34.929L21.6417 40.2076L15.4485 39.5038L16.1858 32.4153ZM31.6195 44.6819L29.4569 41.1628L35.1584 40.5595C34.1263 42.2185 32.9465 43.576 31.6195 44.6819ZM35.1584 9.49071L29.4569 8.88743L31.6195 5.3683C32.9465 6.42404 34.1263 7.8317 35.1584 9.49071ZM19.3315 5.31803L21.4942 8.83716L15.7926 9.49071C16.8248 7.8317 18.0536 6.42404 19.3315 5.31803ZM15.7926 40.5093L21.4942 41.1126L19.3315 44.6317C18.0536 43.576 16.8248 42.2185 15.7926 40.5093Z" fill="#327969"/>
</svg>
