<svg width="51" height="50" viewBox="0 0 51 50" fill="none" xmlns="http://www.w3.org/2000/svg">
<path d="M40.9013 24.4822L37.3846 14.0978L31.3657 5.04444L25.8013 0.141111L25.5013 0L25.2435 0.114444L19.6891 4.98444L13.6602 13.9833L10.0935 24.5144L9.07462 32.2867L9.07129 32.3133L10.7702 40.8856C10.7813 40.9444 10.8102 41.0211 10.8591 41.0733L13.6968 45.2911L18.5724 48.5733C18.628 48.6256 18.7035 48.6622 18.7746 48.6722L25.4724 50L32.2168 48.6722C32.3002 48.6578 32.3624 48.6311 32.4057 48.5922L37.2224 45.3722L40.1102 41.11C40.1724 41.0511 40.2168 40.9722 40.2324 40.8878L41.9246 32.3544L41.9302 32.2678L40.9013 24.4822ZM30.6957 46.3578L31.5124 47.9444L27.3391 48.7744L30.6957 46.3578ZM23.6646 48.7744L19.4891 47.9444L20.3068 46.3578L23.6646 48.7744ZM15.1668 32.8789L13.5013 37.7656L10.0113 32.2867L13.6613 26.99L15.1668 32.8789ZM21.5046 7.72111L20.5102 5.38333L24.208 2.14L21.5046 7.72111ZM26.7935 2.14L30.4924 5.38444L29.4968 7.72222L26.7935 2.14ZM14.1446 38.5156L15.5624 34.3578L17.0335 39.8611L14.1446 38.5156ZM18.3213 21.1322L15.6224 31.2111L14.3102 26.0789L18.3213 21.1322ZM32.6824 21.1322L36.6946 26.0789L35.3824 31.2111L32.6824 21.1322ZM33.968 39.86L35.4402 34.3567L36.8568 38.5133L33.968 39.86ZM34.9491 32.8956L32.9635 40.3222L25.5013 43.41L18.038 40.3222L16.0535 32.8956L19.6346 19.5189L25.5013 12.8222L31.368 19.5189L34.9491 32.8956ZM32.148 19.1211L30.1668 9.75222L36.5513 14.4244L36.7135 24.7522L32.148 19.1211ZM26.1035 12.2144L29.2535 9.53556L31.0013 17.8044L26.1035 12.2144ZM22.008 8.64L25.5024 1.42L28.9957 8.64L25.5024 11.61L22.008 8.64ZM20.0024 17.8033L21.7491 9.53556L24.8991 12.2144L20.0024 17.8033ZM14.288 24.7522L14.4502 14.4244L20.8357 9.75222L18.8546 19.1222L14.288 24.7522ZM17.3646 40.9544L19.4335 45.2122L14.3957 44.6233L14.088 39.4267L17.3646 40.9544ZM24.3068 43.8344L20.3713 45.1978L18.5524 41.4522L24.3068 43.8344ZM29.9346 45.8567L25.5013 49.0489L21.0668 45.8567L25.5013 44.3222L29.9346 45.8567ZM32.4502 41.4522L30.6313 45.1978L26.6968 43.8344L32.4502 41.4522ZM36.9157 39.4256L36.6068 44.6222L31.5702 45.2111L33.6391 40.9533L36.9157 39.4256ZM40.9902 32.2867L37.5002 37.7667L35.8335 32.8789L37.3391 26.9889L40.9902 32.2867ZM37.4413 16.9111L39.9557 24.3178L37.5746 25.3367L37.4413 16.9111ZM37.8057 26.1622L40.1357 25.1644L40.8491 30.5767L37.8057 26.1622ZM30.0457 8.60444L31.088 6.15889L35.2824 12.4389L30.0457 8.60444ZM15.7191 12.4389L19.9135 6.15889L20.9557 8.60444L15.7191 12.4389ZM11.0457 24.3178L13.5602 16.9111L13.428 25.3378L11.0457 24.3178ZM10.1524 30.58L10.8657 25.1656L13.1968 26.1633L10.1524 30.58ZM13.2435 39.6156L13.4735 43.46L11.7524 40.8811L13.2435 39.6156ZM13.0602 38.6567L11.4646 40.0111L10.3568 34.4144L13.0602 38.6567ZM19.4946 46.0756L18.6924 47.6333L15.6968 45.63L19.4946 46.0756ZM35.3046 45.6311L32.3091 47.6344L31.5068 46.0767L35.3046 45.6311ZM39.248 40.8822L37.528 43.4611L37.758 39.6167L39.248 40.8822ZM40.6446 34.4144L39.5368 40.0111L37.9424 38.6567L40.6446 34.4144Z" fill="#327969"/>
</svg>
