<svg width="50" height="50" viewBox="0 0 50 50" fill="none" xmlns="http://www.w3.org/2000/svg">
<g clip-path="url(#clip0_2410_2)">
<mask id="mask0_2410_2" style="mask-type:luminance" maskUnits="userSpaceOnUse" x="0" y="0" width="50" height="50">
<path d="M50 0H0V50H50V0Z" fill="white"/>
</mask>
<g mask="url(#mask0_2410_2)">
<path d="M49.9908 0.538888C50.0286 0.305555 49.8864 0.0833333 49.6619 0.0211111L0.34636 0L0.071916 0.0466666V0.22C0.011916 0.311111 -0.0125284 0.416666 0.00413825 0.497777L0.0085827 49.4589C-0.00363952 49.5311 0.000804918 49.6033 0.0196938 49.6622C0.0330271 49.7089 0.0541383 49.7533 0.0830271 49.7989L0.135249 49.86C0.194138 49.92 0.267472 49.9622 0.351916 49.9844L49.5619 49.9955L49.5897 49.9922C49.8419 49.9633 50.0241 49.7322 49.9975 49.5089L49.9908 0.538888ZM0.92636 47.8644V2.13777L4.32525 7.82666V42.1755L0.92636 47.8644ZM9.93969 24.9944L5.24636 39.4011V10.5978L9.93969 24.9944ZM40.0552 24.9944L44.7475 10.6033V39.3955L40.0552 24.9944ZM44.3864 41.2666L38.3741 37.6389L39.763 27.0811L44.3864 41.2666ZM39.7619 22.9133L38.373 12.3622L44.3852 8.73444L39.7619 22.9133ZM10.6041 5.24889H39.3919L24.9919 9.94222L10.6041 5.24889ZM24.9997 10.8944L37.463 12.5355L39.1041 24.9955L37.463 37.4678L24.9908 39.11L12.5319 37.4655L10.8919 24.9955L12.5308 12.5355L24.9997 10.8944ZM24.9919 40.0578L39.3908 44.7511H10.6041L24.9919 40.0578ZM22.9064 39.7655L8.73414 44.3889L12.3597 38.3766L22.9064 39.7655ZM27.0797 39.7666L37.6341 38.3766L41.2641 44.3911L27.0797 39.7666ZM27.0708 10.2366L41.2652 5.61L37.6341 11.6266L27.0708 10.2366ZM22.9152 10.2366L12.3608 11.6266L8.73192 5.61L22.9152 10.2366ZM10.2341 27.0744L11.6241 37.6389L5.60858 41.2678L10.2341 27.0744ZM5.60858 8.73444L11.6241 12.3622L10.2341 22.9178L5.60858 8.73444ZM10.7619 39.2355L7.36192 44.8766L1.80303 48.1966L5.12303 42.6366L10.7619 39.2355ZM7.82414 45.6744H42.1719L47.8586 49.0722H2.13858L7.82414 45.6744ZM44.873 42.6366L48.1919 48.1944L42.6352 44.8744L39.2341 39.2366L44.873 42.6366ZM44.873 7.36222L39.2352 10.7633L42.6341 5.12555L48.1975 1.80222L44.873 7.36222ZM42.1697 4.32666H7.82525L2.13636 0.926666H47.8597L42.1697 4.32666ZM5.12414 7.36444L1.80192 1.80333L7.35858 5.12333L10.7608 10.7644L5.12414 7.36444ZM45.673 42.1755V7.82777L49.0697 2.14222V47.8611L45.673 42.1755Z" fill="#327969"/>
</g>
</g>
<defs>
<clipPath id="clip0_2410_2">
<rect width="50" height="50" fill="white"/>
</clipPath>
</defs>
</svg>
