<svg width="50" height="50" viewBox="0 0 50 50" fill="none" xmlns="http://www.w3.org/2000/svg">
<path d="M12.8906 46.6992H37.8522V47.0996H12.8906V46.6992Z" fill="#327969" stroke="#327969" stroke-width="0.7"/>
<path d="M12.8906 3H37.8522V3.4005H12.8906V3Z" fill="#327969" stroke="#327969" stroke-width="0.7"/>
<path d="M12.7326 3.07617L13.0521 3.31917L8.35856 9.43467L8.03906 9.19167L12.7326 3.07617Z" fill="#327969" stroke="#327969" stroke-width="0.7"/>
<path d="M8.35856 40.6641L13.0521 46.7795L12.7326 47.0225L8.03906 40.9071L8.35856 40.6641Z" fill="#327969" stroke="#327969" stroke-width="0.7"/>
<path d="M42.3809 40.6641L42.7005 40.9071L38.0069 47.0181L37.6875 46.7751L42.3809 40.6641Z" fill="#327969" stroke="#327969" stroke-width="0.7"/>
<path d="M38.0108 3.07617L42.7044 9.19167L42.3848 9.43467L37.6914 3.31917L38.0108 3.07617Z" fill="#327969" stroke="#327969" stroke-width="0.7"/>
<path d="M8 9.3125H8.4005V40.7855H8V9.3125Z" fill="#327969" stroke="#327969" stroke-width="0.7"/>
<path d="M42.3398 9.3125H42.7403V40.7855H42.3398V9.3125Z" fill="#327969" stroke="#327969" stroke-width="0.7"/>
<path d="M12.8906 46.6992H37.8522V47.0996H12.8906V46.6992Z" fill="#327969" stroke="#327969" stroke-width="0.7"/>
<path d="M12.8906 3H37.8522V3.4005H12.8906V3Z" fill="#327969" stroke="#327969" stroke-width="0.7"/>
<path d="M12.7326 3.07617L13.0521 3.31917L8.35856 9.43467L8.03906 9.19167L12.7326 3.07617Z" fill="#327969" stroke="#327969" stroke-width="0.7"/>
<path d="M8.35856 40.6641L13.0521 46.7795L12.7326 47.0225L8.03906 40.9071L8.35856 40.6641Z" fill="#327969" stroke="#327969" stroke-width="0.7"/>
<path d="M38.0108 3.07617L42.7044 9.19167L42.3848 9.43467L37.6914 3.31917L38.0108 3.07617Z" fill="#327969" stroke="#327969" stroke-width="0.7"/>
<path d="M8 9.3125H8.4005V40.7855H8V9.3125Z" fill="#327969" stroke="#327969" stroke-width="0.7"/>
<path d="M42.3398 9.3125H42.7403V40.7855H42.3398V9.3125Z" fill="#327969" stroke="#327969" stroke-width="0.7"/>
<path d="M39.9168 38.4023L40.2364 38.6453L36.2178 43.8833L35.8984 43.6403L39.9168 38.4023Z" fill="#327969" stroke="#327969" stroke-width="0.7"/>
<path d="M14.6797 43.5586H36.0503V43.959H14.6797V43.5586Z" fill="#327969" stroke="#327969" stroke-width="0.7"/>
<path d="M14.6797 6.14062H36.0503V6.54113H14.6797V6.14062Z" fill="#327969" stroke="#327969" stroke-width="0.7"/>
<path d="M14.5262 6.2168L14.8458 6.4598L10.8273 11.6933L10.5078 11.4503L14.5262 6.2168Z" fill="#327969" stroke="#327969" stroke-width="0.7"/>
<path d="M10.8279 38.4062L14.8419 43.6399L14.5223 43.8829L10.5039 38.6447L10.8279 38.4062Z" fill="#327969" stroke="#327969" stroke-width="0.7"/>
<path d="M36.2178 6.2168L40.2364 11.4503L39.9168 11.6933L35.8984 6.4598L36.2178 6.2168Z" fill="#327969" stroke="#327969" stroke-width="0.7"/>
<path d="M10.4688 11.5762H10.8693V38.5266H10.4688V11.5762Z" fill="#327969" stroke="#327969" stroke-width="0.7"/>
<path d="M39.8711 11.5762H40.2717V38.5266H39.8711V11.5762Z" fill="#327969" stroke="#327969" stroke-width="0.7"/>
<path d="M36.9871 35.7148L37.3065 35.9578L34.0891 40.1518L33.7695 39.9088L36.9871 35.7148Z" fill="#327969" stroke="#327969" stroke-width="0.7"/>
<path d="M16.8086 39.832H33.9221V40.2325H16.8086V39.832Z" fill="#327969" stroke="#327969" stroke-width="0.7"/>
<path d="M16.8086 9.86719H33.9221V10.2677H16.8086V9.86719Z" fill="#327969" stroke="#327969" stroke-width="0.7"/>
<path d="M16.6511 9.94727L16.9707 10.1903L13.7531 14.3842L13.4336 14.1413L16.6511 9.94727Z" fill="#327969" stroke="#327969" stroke-width="0.7"/>
<path d="M13.175 35.7148L16.3926 39.9088L16.073 40.1518L12.8555 35.9578L13.175 35.7148Z" fill="#327969" stroke="#327969" stroke-width="0.7"/>
<path d="M34.0891 9.94727L37.3065 14.1413L36.9871 14.3842L33.7695 10.1903L34.0891 9.94727Z" fill="#327969" stroke="#327969" stroke-width="0.7"/>
<path d="M13.3984 14.2598H13.7989V35.8373H13.3984V14.2598Z" fill="#327969" stroke="#327969" stroke-width="0.7"/>
<path d="M36.9453 14.2598H37.3458V35.8373H36.9453V14.2598Z" fill="#327969" stroke="#327969" stroke-width="0.7"/>
<path d="M34.1005 39.9316L38.0245 46.7986L37.6779 46.9966L33.7539 40.1296L34.1005 39.9316Z" fill="#327969" stroke="#327969" stroke-width="0.7"/>
<path d="M37.6779 3.09961L38.0245 3.29761L34.1005 10.1646L33.7539 9.96661L37.6779 3.09961Z" fill="#327969" stroke="#327969" stroke-width="0.7"/>
<path d="M13.0653 3.09961L16.9893 9.96661L16.6427 10.1646L12.7188 3.30211L13.0653 3.09961Z" fill="#327969" stroke="#327969" stroke-width="0.7"/>
<path d="M16.6427 39.9316L16.9893 40.1296L13.0653 46.9966L12.7188 46.7986L16.6427 39.9316Z" fill="#327969" stroke="#327969" stroke-width="0.7"/>
<path d="M37.2778 35.6934L42.6778 40.6389L42.4078 40.9359L37.0078 35.9904L37.2778 35.6934Z" fill="#327969" stroke="#327969" stroke-width="0.7"/>
<path d="M42.4078 9.16602L42.6778 9.46302L37.2778 14.4085L37.0078 14.1115L42.4078 9.16602Z" fill="#327969" stroke="#327969" stroke-width="0.7"/>
<path d="M8.3325 9.16602L13.728 14.1115L13.458 14.4085L8.0625 9.46302L8.3325 9.16602Z" fill="#327969" stroke="#327969" stroke-width="0.7"/>
<path d="M13.4625 35.6875L13.7325 35.9845L8.3325 40.9299L8.0625 40.6329L13.4625 35.6875Z" fill="#327969" stroke="#327969" stroke-width="0.7"/>
</svg>
