<svg width="51" height="50" viewBox="0 0 51 50" fill="none" xmlns="http://www.w3.org/2000/svg">
<path d="M10.7729 2H38.6871" stroke="#327969" stroke-miterlimit="10"/>
<path d="M10.775 2L4.75684 8.6107" stroke="#327969" stroke-miterlimit="10"/>
<path d="M38.688 2L46.4988 8.6107" stroke="#327969" stroke-miterlimit="10"/>
<path d="M46.5 8.33398V40.2857" stroke="#327969" stroke-miterlimit="10"/>
<path d="M46.5 40.2871L39.0732 47.9996" stroke="#327969" stroke-miterlimit="10"/>
<path d="M39.2019 48H11.6719" stroke="#327969" stroke-miterlimit="10"/>
<path d="M11.6729 47.9986L4.63037 40.4238" stroke="#327969" stroke-miterlimit="10"/>
<path d="M4.75684 8.47266V40.5621" stroke="#327969" stroke-miterlimit="10"/>
<path d="M4.5 40.4233L15.2559 32.9863" stroke="#327969" stroke-miterlimit="10"/>
<path d="M11.9268 47.8616L18.5852 36.5684" stroke="#327969" stroke-miterlimit="10"/>
<path d="M38.817 48.0002L32.2866 36.707" stroke="#327969" stroke-miterlimit="10"/>
<path d="M46.5002 40.4234L36.1284 32.7109" stroke="#327969" stroke-miterlimit="10"/>
<path d="M46.3737 8.60938L36.002 16.8727" stroke="#327969" stroke-miterlimit="10"/>
<path d="M38.6857 2L32.5396 13.7065" stroke="#327969" stroke-miterlimit="10"/>
<path d="M10.7729 2L18.3277 13.5687" stroke="#327969" stroke-miterlimit="10"/>
<path d="M4.75684 8.60938L15.2567 17.0105" stroke="#327969" stroke-miterlimit="10"/>
<path d="M15.2549 17.0124L18.2 13.4316" stroke="#327969" stroke-miterlimit="10"/>
<path d="M15.2561 17.0117L15 33.263" stroke="#327969" stroke-miterlimit="10"/>
<path d="M8.08496 11.2266V37.9449" stroke="#327969" stroke-miterlimit="10"/>
<path d="M8.08496 37.9453L13.8471 44.2806" stroke="#327969" stroke-miterlimit="10"/>
<path d="M13.8467 44.2812L36.767 44.419" stroke="#327969" stroke-miterlimit="10"/>
<path d="M36.6416 44.4173L43.0439 37.8066" stroke="#327969" stroke-miterlimit="10"/>
<path d="M43.0435 11.0898V37.808" stroke="#327969" stroke-miterlimit="10"/>
<path d="M13.0801 5.85742H36.3846" stroke="#327969" stroke-miterlimit="10"/>
<path d="M36.3809 5.85742L43.0393 11.2286" stroke="#327969" stroke-miterlimit="10"/>
<path d="M13.3349 5.71875L8.08496 11.5031" stroke="#327969" stroke-miterlimit="10"/>
<path d="M11.9268 14.3964L15.8962 9.85156" stroke="#327969" stroke-miterlimit="10"/>
<path d="M15.8945 9.85156H34.0772" stroke="#327969" stroke-miterlimit="10"/>
<path d="M34.0801 9.85156L39.458 14.3964" stroke="#327969" stroke-miterlimit="10"/>
<path d="M39.3281 13.9824V34.9163" stroke="#327969" stroke-miterlimit="10"/>
<path d="M39.3288 35.3281L34.335 40.4239" stroke="#327969" stroke-miterlimit="10"/>
<path d="M16.2798 40.2871L34.3344 40.4248" stroke="#327969" stroke-miterlimit="10"/>
<path d="M16.5364 40.1484L11.9268 35.3281" stroke="#327969" stroke-miterlimit="10"/>
<path d="M11.9268 14.3945V35.4661" stroke="#327969" stroke-miterlimit="10"/>
<path d="M18.3281 13.5684L32.6694 13.7061" stroke="#327969" stroke-miterlimit="10"/>
<path d="M32.6699 13.707L36.2552 16.8746" stroke="#327969" stroke-miterlimit="10"/>
<path d="M36.3835 16.7363L36.2549 32.7122" stroke="#327969" stroke-miterlimit="10"/>
<path d="M32.5396 36.5672L36.2528 32.7109" stroke="#327969" stroke-miterlimit="10"/>
<path d="M32.5421 36.5684H18.585" stroke="#327969" stroke-miterlimit="10"/>
<path d="M18.5853 36.5681L15 33.125" stroke="#327969" stroke-miterlimit="10"/>
</svg>
